<?xml version="1.0" encoding="UTF-8"?>
<svg width="25px" height="26px" viewBox="0 0 25 26" version="1.1" xmlns="http://www.w3.org/2000/svg" xmlns:xlink="http://www.w3.org/1999/xlink">
    <!-- Generator: Sketch 64 (93537) - https://sketch.com -->
    <title>facebook (3)</title>
    <desc>Created with Sketch.</desc>
    <g id="Styleguide" stroke="none" stroke-width="1" fill="none" fill-rule="evenodd">
        <g id="facebook-(3)" fill-rule="nonzero">
            <path d="M14.5154953,24.9498109 C14.4113541,24.9845765 14.3068313,25.0166078 14.2019272,25.0459046 C14.3068313,25.0166078 14.4113541,24.9845765 14.5154953,24.9498109 Z" id="Path" fill="#C9C9C9"></path>
            <path d="M14.7655487,24.9177418 C14.7157669,24.9364918 14.6659851,24.9536793 14.6162033,24.9712574 C14.6659851,24.9536793 14.7157669,24.9364918 14.7655487,24.9177418 Z" id="Path" fill="#C9C9C9"></path>
            <path d="M13.9226914,25.0373848 C13.8008118,25.0655098 13.6781692,25.0905098 13.5551453,25.1116035 C13.6781692,25.0905098 13.8008118,25.0655098 13.9226914,25.0373848 Z" id="Path" fill="#C9C9C9"></path>
            <path d="M14.1628266,25.0153435 C14.1042709,25.0313592 14.0453339,25.0462029 13.9865875,25.0602654 C14.0453339,25.0462029 14.1042709,25.0313592 14.1628266,25.0153435 Z" id="Path" fill="#C9C9C9"></path>
            <path d="M15.1058197,24.8491223 C15.0619507,24.8682629 15.0178909,24.8874036 14.9738312,24.9057629 C15.0178909,24.8874036 15.0619507,24.8682629 15.1058197,24.8491223 Z" id="Path" fill="#C9C9C9"></path>
            <path d="M15.9503937,24.6373768 C15.914917,24.6580799 15.8794403,24.6776112 15.8439636,24.6979237 C15.8794403,24.6776112 15.914917,24.6580799 15.9503937,24.6373768 Z" id="Path" fill="#C9C9C9"></path>
            <path d="M15.6949997,24.7072007 C15.6564712,24.7279038 15.6177521,24.7489976 15.5790329,24.7689194 C15.6177521,24.7489976 15.6564712,24.7282944 15.6949997,24.7072007 Z" id="Path" fill="#C9C9C9"></path>
            <path d="M15.3608322,24.7924113 C15.3200149,24.8119426 15.2788162,24.8303019 15.2376175,24.8490519 C15.2788162,24.8303019 15.3200149,24.8119426 15.3608322,24.7924113 Z" id="Path" fill="#C9C9C9"></path>
            <path d="M13.5511398,25.0853163 C13.4853363,25.0966444 13.4195328,25.1068007 13.3535385,25.115785 C13.4195328,25.1068007 13.4853363,25.0966444 13.5511398,25.0853163 Z" id="Path" fill="#C9C9C9"></path>
            <path d="M25,12.5561215 C25,5.62262723 19.402504,0 12.5,0 C5.59749604,0 0,5.62262723 0,12.5561215 C0,19.4896157 5.59749604,25.112243 12.5,25.112243 C12.5734329,25.112243 12.6464844,25.1107102 12.7197266,25.1093691 L12.7197266,15.3349604 L10.0341797,15.3349604 L10.0341797,12.1911402 L12.7197266,12.1911402 L12.7197266,9.87767638 C12.7197266,7.19463309 14.3503189,5.73432487 16.7329788,5.73432487 C17.8739548,5.73432487 18.8547134,5.81977457 19.140625,5.85790123 L19.140625,8.66203017 L17.4976349,8.66203017 C16.2014008,8.66203017 15.9503937,9.28086975 15.9503937,10.1888205 L15.9503937,12.1911402 L19.0498352,12.1911402 L18.6458588,15.3349604 L15.9503937,15.3349604 L15.9503937,24.627134 C21.1751938,23.1225683 25,18.2873809 25,12.5561215 Z" id="Path" fill="#FFFFFF"></path>
            <path d="M13.3258819,25.0995963 C13.1958008,25.1167837 13.0651474,25.1304556 12.9341125,25.13944 C13.0651474,25.1304556 13.1958008,25.1167837 13.3258819,25.0995963 Z" id="Path" fill="#C9C9C9"></path>
            <path d="M12.9274368,25.1269856 C12.8583908,25.131673 12.7891541,25.1351887 12.7199173,25.1375324 C12.7891541,25.1351887 12.8583908,25.131673 12.9274368,25.1269856 Z" id="Path" fill="#C9C9C9"></path>
        </g>
    </g>
</svg>