<?xml version="1.0" encoding="UTF-8"?>
<svg width="25px" height="25px" viewBox="0 0 25 25" version="1.1" xmlns="http://www.w3.org/2000/svg" xmlns:xlink="http://www.w3.org/1999/xlink">
    <!-- Generator: Sketch 64 (93537) - https://sketch.com -->
    <title>google-plus (2)</title>
    <desc>Created with Sketch.</desc>
    <g id="Styleguide" stroke="none" stroke-width="1" fill="none" fill-rule="evenodd">
        <g id="google-plus-(2)" fill="#FFFFFF" fill-rule="nonzero">
            <path d="M12.5,25 C19.4,25 25,19.4 25,12.5 C25,5.6 19.4,0 12.5,0 C5.6,0 0,5.6 0,12.5 C0,19.4 5.6,25 12.5,25 Z M16.9614583,11.6072917 L18.7510417,11.6072917 L18.7510417,9.81875 L20.540625,9.81875 L20.540625,11.6083333 L22.3145833,11.6083333 L22.3145833,13.3979167 L20.540625,13.3979167 L20.540625,15.1875 L18.7510417,15.1875 L18.7510417,13.3979167 L16.9614583,13.3979167 L16.9614583,11.6072917 Z M8.93645833,6.24895833 C10.5135417,6.24895833 11.965625,6.80416667 13.1208333,7.87708333 L11.4270833,9.52083333 C10.7614583,8.86979167 9.85,8.55833333 8.93645833,8.55833333 C6.77395833,8.55833333 5.04479167,10.3479167 5.04479167,12.4947917 C5.04479167,14.6416667 6.76875,16.43125 8.93645833,16.43125 C10.5791667,16.43125 12.2072917,15.46875 12.4697917,13.7447917 L8.93645833,13.7447917 L8.93645833,11.5979167 L14.8291667,11.5979167 C14.8947917,11.940625 14.925,12.2833333 14.925,12.640625 C14.925,16.209375 12.5302083,18.7489583 8.93645833,18.7489583 L8.93645833,18.75 C5.46875,18.75 2.68541667,15.9520833 2.68541667,12.4989583 C2.68541667,9.04583333 5.46875,6.24895833 8.93645833,6.24895833 Z" id="Shape"></path>
        </g>
    </g>
</svg>