<?xml version="1.0" encoding="UTF-8"?>
<svg width="25px" height="25px" viewBox="0 0 25 25" version="1.1" xmlns="http://www.w3.org/2000/svg" xmlns:xlink="http://www.w3.org/1999/xlink">
    <!-- Generator: Sketch 64 (93537) - https://sketch.com -->
    <title>twitter (1)</title>
    <desc>Created with Sketch.</desc>
    <g id="Styleguide" stroke="none" stroke-width="1" fill="none" fill-rule="evenodd">
        <g id="twitter-(1)" fill="#FFFFFF" fill-rule="nonzero">
            <path d="M12.5,0 C5.59749604,0 0,5.59749604 0,12.5 C0,19.402504 5.59749604,25 12.5,25 C19.402504,25 25,19.402504 25,12.5 C25,5.59749604 19.402504,0 12.5,0 Z M18.2073593,9.74617002 C18.2128906,9.86919404 18.2155609,9.99279023 18.2155609,10.1169586 C18.2155609,13.9081955 15.3297424,18.2800293 10.0522995,18.28022 L10.0524902,18.28022 L10.0522995,18.28022 C8.43200684,18.28022 6.92424775,17.8052902 5.65452578,16.9914246 C5.8790207,17.0179367 6.10752104,17.0310974 6.33888242,17.0310974 C7.68318174,17.0310974 8.92028809,16.5725708 9.90238188,15.8029556 C8.64639282,15.779686 7.58743286,14.9501801 7.22198486,13.8101578 C7.39688872,13.8437271 7.57675171,13.8620376 7.76119233,13.8620376 C8.02307129,13.8620376 8.27674863,13.8267517 8.5178375,13.7609482 C7.20500947,13.4981155 6.21604922,12.3378754 6.21604922,10.9485626 C6.21604922,10.9355927 6.21604922,10.9239578 6.21643066,10.9119415 C6.60305024,11.1268997 7.04517363,11.256218 7.51590728,11.2707138 C6.7455292,10.7566833 6.23912812,9.87796782 6.23912812,8.88252256 C6.23912812,8.35685732 6.38122559,7.86437988 6.62765503,7.44037627 C8.04252627,9.17644502 10.1570129,10.3181839 12.5415802,10.4381562 C12.4923706,10.2279663 12.4670029,10.0090027 12.4670029,9.78393555 C12.4670029,8.20007324 13.7519836,6.91509248 15.3364182,6.91509248 C16.1617279,6.91509248 16.9071197,7.26394653 17.430687,7.82165527 C18.0843354,7.69271851 18.6981201,7.45391846 19.2525864,7.12528228 C19.0380097,7.79495239 18.5832978,8.35685732 17.9908752,8.71219634 C18.5712814,8.64276885 19.1244125,8.4888458 19.638443,8.26034546 C19.2544937,8.83579253 18.7675476,9.34123994 18.2073593,9.74617002 Z" id="Shape"></path>
        </g>
    </g>
</svg>